<?xml version="1.0" standalone="no"?>
<!DOCTYPE svg PUBLIC "-//W3C//DTD SVG 20010904//EN"
 "http://www.w3.org/TR/2001/REC-SVG-20010904/DTD/svg10.dtd">
<svg version="1.0" xmlns="http://www.w3.org/2000/svg"
 width="32.000000pt" height="32.000000pt" viewBox="0 0 32.000000 32.000000"
 preserveAspectRatio="xMidYMid meet">

<g transform="translate(0.000000,32.000000) scale(0.100000,-0.100000)"
fill="#000000" stroke="none">
<path d="M110 293 c-28 -10 -49 -35 -56 -66 -4 -18 -13 -41 -21 -53 -9 -15
-11 -24 -4 -29 6 -3 11 -24 11 -46 0 -29 5 -41 17 -45 10 -3 26 -10 36 -15 15
-8 17 -4 17 28 -1 21 -7 49 -15 63 -8 14 -14 45 -15 68 0 36 5 49 31 73 30 28
30 33 -1 22z"/>
<path d="M219 271 c26 -24 31 -37 31 -73 -1 -23 -7 -54 -15 -68 -8 -14 -14
-42 -15 -63 0 -32 2 -36 18 -28 9 5 25 12 35 15 12 4 17 16 17 45 0 22 4 42 9
46 6 3 4 17 -4 33 -8 15 -19 42 -26 60 -6 18 -24 39 -40 47 -42 22 -45 18 -10
-14z"/>
<path d="M106 248 c-22 -31 -20 -70 5 -101 11 -15 23 -43 26 -62 5 -29 10 -35
27 -33 25 4 35 38 12 38 -13 0 -16 15 -16 90 0 82 -2 90 -19 90 -11 0 -27 -10
-35 -22z"/>
</g>
</svg>
